<?xml version="1.0" encoding="utf-8"?>
<!-- Generator: Adobe Illustrator 24.0.2, SVG Export Plug-In . SVG Version: 6.00 Build 0)  -->
<svg version="1.1" id="visual" xmlns="http://www.w3.org/2000/svg" xmlns:xlink="http://www.w3.org/1999/xlink" x="0px" y="0px"
	 viewBox="0 0 1421 3279" style="enable-background:new 0 0 1421 3279;" xml:space="preserve">
<style type="text/css">
	.st0{fill:#8CEFEE;}
	.st1{fill:#5CC7C5;}
	.st2{fill:#56BFBD;}
	.st3{fill:#4FB6B4;}
	.st4{fill:#49AEAC;}
	.st5{fill:#42A6A4;}
	.st6{fill:#3C9E9C;}
	.st7{fill:#359694;}
	.st8{fill:#2F8E8C;}
	.st9{fill:#288684;}
	.st10{fill:#217F7D;}
	.st11{fill:#197775;}
</style>
<rect y="596.5" class="st0" width="1421" height="2682.5"/>
<path class="st1" d="M0,1181l26.3-63.2c26.4-63.1,79-189.5,131.7-141.6c52.7,47.8,105.3,269.8,158,263
	c52.7-6.9,105.3-242.5,158-323.5s105.3-7.4,157.8,68.3s104.9,153.3,157.4,227.7c52.5,74.3,105.1,145.3,157.8,94.8
	s105.3-222.5,158-320s105.3-120.5,158-120s105.3,24.5,131.7,36.5l26.3,12v2365h-26.3c-26.4,0-79,0-131.7,0s-105.3,0-158,0
	s-105.3,0-158,0s-105.3,0-157.8,0s-104.9,0-157.4,0s-105.1,0-157.8,0s-105.3,0-158,0s-105.3,0-158,0s-105.3,0-131.7,0H0V1181z"/>
<path class="st2" d="M0,1005l26.3,19c26.4,19,79,57,131.7,52.7c52.7-4.4,105.3-51,158,21.3s105.3,263.7,158,263.8
	c52.7,0.2,105.3-190.8,157.8-286.1c52.5-95.4,104.9-95,157.4-97.2s105.1-6.8,157.8,97.3c52.7,104.2,105.3,317.2,158,354.2
	s105.3-102,158-91.8c52.7,10.1,105.3,169.5,131.7,249.1l26.3,79.7v1613h-26.3c-26.4,0-79,0-131.7,0s-105.3,0-158,0s-105.3,0-158,0
	s-105.3,0-157.8,0s-104.9,0-157.4,0s-105.1,0-157.8,0s-105.3,0-158,0s-105.3,0-158,0s-105.3,0-131.7,0H0V1005z"/>
<path class="st3" d="M0,1529l26.3-38.5c26.4-38.5,79-115.5,131.7-79s105.3,186.5,158,235.3c52.7,48.9,105.3-3.5,158-27
	s105.3-18.1,157.8,16.4s104.9,98.1,157.4,115.3s105.1-12.2,157.8-77s105.3-165.2,158-263.7s105.3-195.1,158-236
	c52.7-40.8,105.3-25.8,131.7-18.3l26.3,7.5v2116h-26.3c-26.4,0-79,0-131.7,0s-105.3,0-158,0s-105.3,0-158,0s-105.3,0-157.8,0
	s-104.9,0-157.4,0s-105.1,0-157.8,0s-105.3,0-158,0s-105.3,0-158,0s-105.3,0-131.7,0H0V1529z"/>
<path class="st4" d="M0,1772l26.3-72.3c26.4-72.4,79-217,131.7-240.4c52.7-23.3,105.3,74.7,158,91.5c52.7,16.9,105.3-47.5,158-11.3
	s105.3,172.8,157.8,203.7c52.5,30.8,104.9-44.2,157.4-53.7s105.1,46.5,157.8,78.3c52.7,31.9,105.3,39.5,158,61.5
	s105.3,58.4,158,10.5c52.7-47.8,105.3-179.8,131.7-245.8l26.3-66v1752h-26.3c-26.4,0-79,0-131.7,0s-105.3,0-158,0s-105.3,0-158,0
	s-105.3,0-157.8,0s-104.9,0-157.4,0s-105.1,0-157.8,0s-105.3,0-158,0s-105.3,0-158,0s-105.3,0-131.7,0H0V1772z"/>
<path class="st5" d="M0,1992l26.3,25.2c26.4,25.1,79,75.5,131.7,57.1c52.7-18.3,105.3-105.3,158-171.5
	c52.7-66.1,105.3-111.5,158-90.1c52.7,21.3,105.3,109.3,157.8,113c52.5,3.6,104.9-77,157.4-54s105.1,149.6,157.8,161.8
	s105.3-90.2,158-164.7s105.3-121.1,158-99.3s105.3,112.2,131.7,157.3l26.3,45.2v1308h-26.3c-26.4,0-79,0-131.7,0s-105.3,0-158,0
	s-105.3,0-158,0s-105.3,0-157.8,0s-104.9,0-157.4,0s-105.1,0-157.8,0s-105.3,0-158,0s-105.3,0-158,0s-105.3,0-131.7,0H0V1992z"/>
<path class="st6" d="M0,1896l26.3,41.5c26.4,41.5,79,124.5,131.7,179.7c52.7,55.1,105.3,82.5,158,87.1c52.7,4.7,105.3-13.3,158-47.8
	s105.3-85.5,157.8-81.5s104.9,63,157.4,97.3c52.5,34.4,105.1,44,157.8,23.7s105.3-70.7,158-57.2s105.3,90.9,158,114.5
	c52.7,23.7,105.3-6.3,131.7-21.3l26.3-15v1063h-26.3c-26.4,0-79,0-131.7,0s-105.3,0-158,0s-105.3,0-158,0s-105.3,0-157.8,0
	s-104.9,0-157.4,0s-105.1,0-157.8,0s-105.3,0-158,0s-105.3,0-158,0s-105.3,0-131.7,0H0V1896z"/>
<path class="st7" d="M0,2185l26.3,19.3c26.4,19.4,79,58,131.7,98.5s105.3,82.9,158,101.7s105.3,14.2,158-52s105.3-193.8,157.8-236.2
	c52.5-42.3,104.9,0.7,157.4,33.2s105.1,54.5,157.8,59s105.3-8.5,158-8.2c52.7,0.4,105.3,14,158-11.3s105.3-89.7,131.7-121.8
	l26.3-32.2v1245h-26.3c-26.4,0-79,0-131.7,0s-105.3,0-158,0s-105.3,0-158,0s-105.3,0-157.8,0s-104.9,0-157.4,0s-105.1,0-157.8,0
	s-105.3,0-158,0s-105.3,0-158,0s-105.3,0-131.7,0H0V2185z"/>
<path class="st8" d="M0,2289l26.3,37.2c26.4,37.1,79,111.5,131.7,162.3s105.3,78.2,158,78.8c52.7,0.7,105.3-25.3,158-57.3
	s105.3-70,157.8-70.2c52.5-0.1,104.9,37.5,157.4,40.5s105.1-28.6,157.8-68.8s105.3-88.8,158-82.2c52.7,6.7,105.3,68.7,158,122.9
	c52.7,54.1,105.3,100.5,131.7,123.6l26.3,23.2v681h-26.3c-26.4,0-79,0-131.7,0s-105.3,0-158,0s-105.3,0-158,0s-105.3,0-157.8,0
	s-104.9,0-157.4,0s-105.1,0-157.8,0s-105.3,0-158,0s-105.3,0-158,0s-105.3,0-131.7,0H0V2289z"/>
<path class="st9" d="M0,2472l26.3,37.2c26.4,37.1,79,111.5,131.7,133s105.3-9.9,158-29.9s105.3-28.6,158-50.6s105.3-57.4,157.8-53.5
	c52.5,3.8,104.9,46.8,157.4,99.1c52.5,52.4,105.1,114,157.8,119.4c52.7,5.3,105.3-45.7,158-74.5c52.7-28.9,105.3-35.5,158-26.9
	c52.7,8.7,105.3,32.7,131.7,44.7l26.3,12v598h-26.3c-26.4,0-79,0-131.7,0s-105.3,0-158,0s-105.3,0-158,0s-105.3,0-157.8,0
	s-104.9,0-157.4,0s-105.1,0-157.8,0s-105.3,0-158,0s-105.3,0-158,0s-105.3,0-131.7,0H0V2472z"/>
<path class="st10" d="M0,2684l26.3,1c26.4,1,79,3,131.7,1.5s105.3-6.5,158,25.5s105.3,101,158,144.3c52.7,43.4,105.3,61,157.8,65
	s104.9-5.6,157.4-10c52.5-4.3,105.1-3.3,157.8-1.8s105.3,3.5,158-25.8c52.7-29.4,105.3-90,158-88.5s105.3,65.1,131.7,97l26.3,31.8
	v356h-26.3c-26.4,0-79,0-131.7,0s-105.3,0-158,0s-105.3,0-158,0s-105.3,0-157.8,0s-104.9,0-157.4,0s-105.1,0-157.8,0s-105.3,0-158,0
	s-105.3,0-158,0s-105.3,0-131.7,0H0V2684z"/>
<path class="st11" d="M0,3108l26.3-0.5c26.4-0.5,79-1.5,131.7-13s105.3-33.5,158-51.8c52.7-18.4,105.3-33,158-48.4
	c52.7-15.3,105.3-31.3,157.8-20.1c52.5,11.1,104.9,49.5,157.4,47s105.1-45.9,157.8-41.7s105.3,55.8,158,83.7
	c52.7,27.8,105.3,31.8,158,1.8s105.3-94,131.7-126l26.3-32v373h-26.3c-26.4,0-79,0-131.7,0s-105.3,0-158,0s-105.3,0-158,0
	s-105.3,0-157.8,0s-104.9,0-157.4,0s-105.1,0-157.8,0s-105.3,0-158,0s-105.3,0-158,0s-105.3,0-131.7,0H0V3108z"/>
</svg>
